<svg xmlns="http://www.w3.org/2000/svg" viewBox="0 0 512 640" x="0px" y="0px"><g><path d="M99.1,379.04c0-10.35-4.99-20.2-13.64-25.88-2.72-1.79-5.67-3.1-8.7-3.77-6.43-1.34-15.17-2.64-27.1-2.67-11.94,.02-20.68,1.33-27.1,2.67-3.02,.67-5.98,1.99-8.7,3.77-8.65,5.68-13.64,15.53-13.64,25.88v60.01c0,10.35,4.99,20.2,13.64,25.88,2.72,1.79,5.67,3.1,8.7,3.77,6.43,1.34,15.17,2.65,27.1,2.67,11.94-.02,20.68-1.33,27.1-2.67,3.02-.67,5.98-1.99,8.7-3.77,8.65-5.68,13.64-15.53,13.64-25.88v-60.01Z"/><path d="M137.78,439.05c0,10.35,4.99,20.2,13.64,25.88,2.72,1.79,5.67,3.1,8.7,3.77,6.43,1.34,15.17,2.65,27.1,2.67,11.94-.02,20.68-1.33,27.1-2.67,3.02-.67,5.98-1.99,8.7-3.77,8.65-5.68,13.64-15.53,13.64-25.88v-162.04c0-10.35-4.99-20.2-13.64-25.88-2.72-1.79-5.67-3.1-8.7-3.77-6.43-1.34-15.17-2.64-27.1-2.67-11.94,.02-20.68,1.33-27.1,2.67-3.02,.67-5.98,1.99-8.7,3.77-8.65,5.68-13.64,15.53-13.64,25.88v162.04Z"/><path d="M374.22,174.98c0-10.35-4.99-20.2-13.64-25.88-2.72-1.79-5.67-3.1-8.7-3.77-6.43-1.34-15.17-2.64-27.1-2.67-11.94,.02-20.68,1.33-27.1,2.67-3.02,.67-5.98,1.99-8.7,3.77-8.65,5.68-13.64,15.53-13.64,25.88V439.05c0,10.35,4.99,20.2,13.64,25.88,2.72,1.79,5.67,3.1,8.7,3.77,6.43,1.34,15.17,2.65,27.1,2.67,11.94-.02,20.68-1.33,27.1-2.67,3.02-.67,5.98-1.99,8.7-3.77,8.65-5.68,13.64-15.53,13.64-25.88V174.98Z"/><path d="M511.78,72.95c0-10.35-4.99-20.2-13.64-25.88-2.72-1.79-5.67-3.1-8.7-3.77-6.43-1.34-15.17-2.64-27.1-2.67-11.94,.02-20.68,1.33-27.1,2.67-3.02,.67-5.98,1.99-8.7,3.77-8.65,5.68-13.64,15.53-13.64,25.88V439.05c0,10.35,4.99,20.2,13.64,25.88,2.72,1.79,5.67,3.1,8.7,3.77,6.43,1.34,15.17,2.65,27.1,2.67,11.94-.02,20.68-1.33,27.1-2.67,3.02-.67,5.98-1.99,8.7-3.77,8.65-5.68,13.64-15.53,13.64-25.88V72.95Z"/></g></svg>