<svg xmlns="http://www.w3.org/2000/svg" viewBox="0 0 1254 1254">
<path d="M 756.0,906.5 L 755.0,906.5 L 754.0,906.5 L 753.0,906.5 L 752.0,906.5 L 751.0,906.5 L 750.0,906.5 L 749.0,906.5 L 748.0,906.5 L 747.0,906.5 L 746.0,906.5 L 745.0,906.5 L 744.0,906.5 L 743.0,906.5 L 742.0,906.5 L 741.0,906.5 L 740.0,906.5 L 739.0,906.5 L 738.0,906.5 L 737.0,906.5 L 736.0,906.5 L 735.0,906.5 L 734.0,906.5 L 733.0,906.5 L 732.0,906.5 L 731.0,906.5 L 730.0,906.5 L 729.0,906.5 L 728.0,906.5 L 727.0,906.5 L 726.0,906.5 L 725.0,906.5 L 724.0,906.5 L 723.0,906.5 L 722.0,906.5 L 721.0,906.5 L 720.0,906.5 L 719.0,906.5 L 718.0,906.5 L 717.0,906.5 L 716.0,906.5 L 715.0,906.5 L 714.0,906.5 L 713.0,906.5 L 712.0,906.5 L 711.0,906.5 L 710.0,906.5 L 709.0,906.5 L 708.0,906.5 L 707.0,906.5 L 706.0,906.5 L 705.0,906.5 L 704.0,906.5 L 703.0,906.5 L 702.0,906.5 L 701.0,906.5 L 700.0,906.5 L 699.0,906.5 L 698.0,906.5 L 697.0,906.5 L 696.0,906.5 L 695.0,906.5 L 694.0,906.5 L 693.0,906.5 L 692.0,906.5 L 691.0,906.5 L 690.0,906.5 L 689.0,906.5 L 688.0,906.5 L 687.0,906.5 L 686.0,906.5 L 685.5,906.0 L 685.0,905.5 L 684.0,905.5 L 683.0,905.5 L 682.5,906.0 L 682.0,906.5 L 681.0,906.5 L 680.5,906.0 L 680.0,905.5 L 679.5,906.0 L 679.0,906.5 L 678.0,906.5 L 677.0,906.5 L 676.0,906.5 L 675.0,906.5 L 674.0,906.5 L 673.5,906.0 L 673.0,905.5 L 672.0,905.5 L 671.0,905.5 L 670.0,905.5 L 669.0,905.5 L 668.0,905.5 L 667.0,905.5 L 666.0,905.5 L 665.0,905.5 L 664.0,905.5 L 663.0,905.5 L 662.0,905.5 L 661.0,905.5 L 660.0,905.5 L 659.0,905.5 L 658.0,905.5 L 657.0,905.5 L 656.0,905.5 L 655.0,905.5 L 654.0,905.5 L 653.0,905.5 L 652.0,905.5 L 651.0,905.5 L 650.0,905.5 L 649.0,905.5 L 648.0,905.5 L 647.0,905.5 L 646.0,905.5 L 645.0,905.5 L 644.0,905.5 L 643.0,905.5 L 642.0,905.5 L 641.0,905.5 L 640.0,905.5 L 639.0,905.5 L 638.0,905.5 L 637.0,905.5 L 636.0,905.5 L 635.0,905.5 L 634.0,905.5 L 633.0,905.5 L 632.0,905.5 L 631.0,905.5 L 630.0,905.5 L 629.0,905.5 L 628.0,905.5 L 627.0,905.5 L 626.0,905.5 L 625.0,905.5 L 624.0,905.5 L 623.0,905.5 L 622.0,905.5 L 621.0,905.5 L 620.0,905.5 L 619.0,905.5 L 618.0,905.5 L 617.5,905.0 L 617.5,904.0 L 617.5,903.0 L 617.5,902.0 L 617.5,901.0 L 617.5,900.0 L 617.5,899.0 L 617.5,898.0 L 617.5,897.0 L 617.5,896.0 L 617.5,895.0 L 617.5,894.0 L 617.5,893.0 L 617.5,892.0 L 617.5,891.0 L 617.5,890.0 L 617.5,889.0 L 617.5,888.0 L 617.5,887.0 L 617.5,886.0 L 617.5,885.0 L 617.5,884.0 L 617.5,883.0 L 617.5,882.0 L 617.5,881.0 L 617.5,880.0 L 617.5,879.0 L 617.5,878.0 L 617.5,877.0 L 617.5,876.0 L 617.5,875.0 L 617.5,874.0 L 617.5,873.0 L 617.5,872.0 L 617.5,871.0 L 617.5,870.0 L 617.5,869.0 L 617.5,868.0 L 617.5,867.0 L 617.5,866.0 L 617.5,865.0 L 617.5,864.0 L 617.5,863.0 L 617.5,862.0 L 617.5,861.0 L 617.5,860.0 L 617.5,859.0 L 617.5,858.0 L 617.5,857.0 L 617.5,856.0 L 617.5,855.0 L 617.5,854.0 L 617.5,853.0 L 617.5,852.0 L 617.5,851.0 L 617.5,850.0 L 617.5,849.0 L 617.5,848.0 L 617.5,847.0 L 617.5,846.0 L 617.5,845.0 L 617.5,844.0 L 617.5,843.0 L 617.5,842.0 L 617.5,841.0 L 617.5,840.0 L 617.5,839.0 L 617.5,838.0 L 617.5,837.0 L 617.5,836.0 L 617.5,835.0 L 617.5,834.0 L 617.5,833.0 L 617.5,832.0 L 617.5,831.0 L 617.5,830.0 L 617.5,829.0 L 617.5,828.0 L 617.5,827.0 L 617.5,826.0 L 617.5,825.0 L 617.5,824.0 L 617.5,823.0 L 617.5,822.0 L 617.5,821.0 L 617.5,820.0 L 617.5,819.0 L 617.5,818.0 L 617.5,817.0 L 617.5,816.0 L 617.5,815.0 L 617.5,814.0 L 617.5,813.0 L 617.5,812.0 L 617.5,811.0 L 617.5,810.0 L 617.5,809.0 L 617.5,808.0 L 617.5,807.0 L 617.5,806.0 L 617.5,805.0 L 617.5,804.0 L 617.5,803.0 L 617.5,802.0 L 617.5,801.0 L 617.5,800.0 L 617.5,799.0 L 617.5,798.0 L 617.5,797.0 L 618.0,796.5 L 619.0,796.5 L 620.0,796.5 L 621.0,796.5 L 622.0,796.5 L 623.0,796.5 L 624.0,796.5 L 625.0,796.5 L 626.0,796.5 L 627.0,796.5 L 628.0,796.5 L 629.0,796.5 L 630.0,796.5 L 631.0,796.5 L 632.0,796.5 L 633.0,796.5 L 634.0,796.5 L 635.0,796.5 L 636.0,796.5 L 637.0,796.5 L 638.0,796.5 L 639.0,796.5 L 640.0,796.5 L 641.0,796.5 L 642.0,796.5 L 643.0,796.5 L 644.0,796.5 L 645.0,796.5 L 646.0,796.5 L 647.0,796.5 L 648.0,796.5 L 649.0,796.5 L 650.0,796.5 L 651.0,796.5 L 652.0,796.5 L 653.0,796.5 L 654.0,796.5 L 655.0,796.5 L 656.0,796.5 L 657.0,796.5 L 658.0,796.5 L 659.0,796.5 L 660.0,796.5 L 661.0,796.5 L 662.0,796.5 L 663.0,796.5 L 664.0,796.5 L 665.0,796.5 L 666.0,796.5 L 667.0,796.5 L 668.0,796.5 L 669.0,796.5 L 670.0,796.5 L 671.0,796.5 L 672.0,796.5 L 673.0,796.5 L 674.0,796.5 L 675.0,796.5 L 676.0,796.5 L 677.0,796.5 L 678.0,796.5 L 679.0,796.5 L 680.0,796.5 L 681.0,796.5 L 682.0,796.5 L 683.0,796.5 L 684.0,796.5 L 685.0,796.5 L 686.0,796.5 L 687.0,796.5 L 688.0,796.5 L 689.0,796.5 L 690.0,796.5 L 691.0,796.5 L 692.0,796.5 L 693.0,796.5 L 694.0,796.5 L 695.0,796.5 L 696.0,796.5 L 697.0,796.5 L 698.0,796.5 L 699.0,796.5 L 700.0,796.5 L 701.0,796.5 L 702.0,796.5 L 703.0,796.5 L 704.0,796.5 L 705.0,796.5 L 706.0,796.5 L 707.0,796.5 L 708.0,796.5 L 709.0,796.5 L 710.0,796.5 L 711.0,796.5 L 712.0,796.5 L 713.0,796.5 L 714.0,796.5 L 715.0,796.5 L 716.0,796.5 L 717.0,796.5 L 718.0,796.5 L 719.0,796.5 L 720.0,796.5 L 721.0,796.5 L 722.0,796.5 L 723.0,796.5 L 724.0,796.5 L 725.0,796.5 L 726.0,796.5 L 727.0,796.5 L 728.0,796.5 L 729.0,796.5 L 730.0,796.5 L 731.0,796.5 L 732.0,796.5 L 733.0,796.5 L 734.0,796.5 L 735.0,796.5 L 736.0,796.5 L 737.0,796.5 L 738.0,796.5 L 739.0,796.5 L 740.0,796.5 L 741.0,796.5 L 742.0,796.5 L 743.0,796.5 L 744.0,796.5 L 745.0,796.5 L 746.0,796.5 L 747.0,796.5 L 748.0,796.5 L 749.0,796.5 L 750.0,796.5 L 751.0,796.5 L 752.0,796.5 L 752.5,796.0 L 753.0,795.5 L 754.0,795.5 L 755.0,795.5 L 756.0,795.5 L 757.0,795.5 L 757.5,795.0 L 758.0,794.5 L 759.0,794.5 L 760.0,794.5 L 761.0,794.5 L 762.0,794.5 L 762.5,794.0 L 763.0,793.5 L 764.0,793.5 L 765.0,793.5 L 765.5,793.0 L 766.0,792.5 L 767.0,792.5 L 768.0,792.5 L 768.5,792.0 L 769.0,791.5 L 770.0,791.5 L 771.0,791.5 L 771.5,791.0 L 772.0,790.5 L 773.0,790.5 L 773.5,790.0 L 774.0,789.5 L 775.0,789.5 L 776.0,789.5 L 776.5,789.0 L 777.0,788.5 L 778.0,788.5 L 778.5,788.0 L 779.0,787.5 L 780.0,787.5 L 780.5,787.0 L 781.0,786.5 L 781.5,786.0 L 782.0,785.5 L 783.0,785.5 L 783.5,785.0 L 784.0,784.5 L 784.5,784.0 L 785.0,783.5 L 786.0,783.5 L 786.5,783.0 L 787.0,782.5 L 788.0,782.5 L 788.5,782.0 L 789.0,781.5 L 789.5,781.0 L 790.0,780.5 L 790.5,780.0 L 791.0,779.5 L 792.0,779.5 L 792.5,779.0 L 793.0,778.5 L 793.5,778.0 L 794.0,777.5 L 794.5,777.0 L 795.0,776.5 L 795.5,776.0 L 796.0,775.5 L 796.5,775.0 L 797.0,774.5 L 797.5,774.0 L 798.0,773.5 L 798.5,773.0 L 799.0,772.5 L 799.5,772.0 L 800.0,771.5 L 800.5,771.0 L 801.0,770.5 L 801.5,770.0 L 802.0,769.5 L 802.5,769.0 L 803.0,768.5 L 803.5,768.0 L 804.0,767.5 L 804.5,767.0 L 804.5,766.0 L 805.0,765.5 L 805.5,765.0 L 806.0,764.5 L 806.5,764.0 L 807.0,763.5 L 807.5,763.0 L 807.5,762.0 L 808.0,761.5 L 808.5,761.0 L 809.0,760.5 L 809.5,760.0 L 809.5,759.0 L 810.0,758.5 L 810.5,758.0 L 811.0,757.5 L 811.5,757.0 L 811.5,756.0 L 812.0,755.5 L 812.5,755.0 L 812.5,754.0 L 813.0,753.5 L 813.5,753.0 L 813.5,752.0 L 814.0,751.5 L 814.5,751.0 L 814.5,750.0 L 815.0,749.5 L 815.5,749.0 L 815.5,748.0 L 816.0,747.5 L 816.5,747.0 L 816.5,746.0 L 817.0,745.5 L 817.5,745.0 L 817.5,744.0 L 817.5,743.0 L 818.0,742.5 L 818.5,742.0 L 818.5,741.0 L 818.5,740.0 L 819.0,739.5 L 819.5,739.0 L 819.5,738.0 L 819.5,737.0 L 819.5,736.0 L 820.0,735.5 L 820.5,735.0 L 820.5,734.0 L 820.5,733.0 L 821.0,732.5 L 821.5,732.0 L 821.5,731.0 L 821.5,730.0 L 821.5,729.0 L 821.5,728.0 L 822.0,727.5 L 822.5,727.0 L 822.5,726.0 L 822.5,725.0 L 822.5,724.0 L 822.5,723.0 L 822.5,722.0 L 822.5,721.0 L 822.5,720.0 L 823.0,719.5 L 823.5,719.0 L 823.5,718.0 L 823.5,717.0 L 823.5,716.0 L 823.5,715.0 L 823.5,714.0 L 823.5,713.0 L 823.5,712.0 L 823.5,711.0 L 823.5,710.0 L 823.5,709.0 L 823.5,708.0 L 823.5,707.0 L 823.5,706.0 L 823.5,705.0 L 823.5,704.0 L 823.5,703.0 L 823.5,702.0 L 823.5,701.0 L 823.5,700.0 L 823.5,699.0 L 823.5,698.0 L 823.5,697.0 L 823.5,696.0 L 823.5,695.0 L 823.5,694.0 L 823.5,693.0 L 823.5,692.0 L 823.5,691.0 L 823.5,690.0 L 823.5,689.0 L 823.5,688.0 L 823.5,687.0 L 823.5,686.0 L 823.5,685.0 L 823.5,684.0 L 823.5,683.0 L 823.5,682.0 L 823.5,681.0 L 823.5,680.0 L 823.5,679.0 L 823.5,678.0 L 823.5,677.0 L 823.5,676.0 L 823.5,675.0 L 823.5,674.0 L 823.5,673.0 L 823.5,672.0 L 823.5,671.0 L 823.5,670.0 L 823.5,669.0 L 823.5,668.0 L 823.5,667.0 L 823.5,666.0 L 823.5,665.0 L 823.5,664.0 L 823.5,663.0 L 823.5,662.0 L 823.5,661.0 L 823.5,660.0 L 823.5,659.0 L 823.5,658.0 L 823.5,657.0 L 823.5,656.0 L 823.5,655.0 L 823.5,654.0 L 823.5,653.0 L 823.5,652.0 L 823.5,651.0 L 823.5,650.0 L 823.5,649.0 L 823.5,648.0 L 823.5,647.0 L 823.5,646.0 L 823.5,645.0 L 823.5,644.0 L 823.5,643.0 L 823.5,642.0 L 823.5,641.0 L 823.5,640.0 L 823.5,639.0 L 823.5,638.0 L 823.5,637.0 L 823.5,636.0 L 823.5,635.0 L 823.5,634.0 L 823.5,633.0 L 823.5,632.0 L 823.5,631.0 L 823.5,630.0 L 823.5,629.0 L 823.5,628.0 L 823.5,627.0 L 823.5,626.0 L 823.5,625.0 L 823.5,624.0 L 823.5,623.0 L 823.5,622.0 L 823.5,621.0 L 823.5,620.0 L 823.5,619.0 L 823.5,618.0 L 823.5,617.0 L 823.5,616.0 L 823.5,615.0 L 823.5,614.0 L 823.5,613.0 L 823.5,612.0 L 823.5,611.0 L 823.5,610.0 L 823.5,609.0 L 823.5,608.0 L 823.5,607.0 L 823.5,606.0 L 823.5,605.0 L 823.5,604.0 L 823.5,603.0 L 823.5,602.0 L 823.5,601.0 L 823.5,600.0 L 823.5,599.0 L 823.5,598.0 L 823.5,597.0 L 823.5,596.0 L 823.5,595.0 L 823.5,594.0 L 823.5,593.0 L 823.5,592.0 L 823.5,591.0 L 823.5,590.0 L 823.5,589.0 L 823.5,588.0 L 823.5,587.0 L 823.5,586.0 L 823.5,585.0 L 823.5,584.0 L 823.5,583.0 L 823.5,582.0 L 823.5,581.0 L 823.5,580.0 L 823.5,579.0 L 823.5,578.0 L 823.5,577.0 L 823.5,576.0 L 823.5,575.0 L 823.5,574.0 L 823.5,573.0 L 823.5,572.0 L 823.5,571.0 L 823.5,570.0 L 823.5,569.0 L 823.5,568.0 L 823.5,567.0 L 823.5,566.0 L 823.5,565.0 L 823.5,564.0 L 823.5,563.0 L 823.5,562.0 L 823.5,561.0 L 823.5,560.0 L 823.5,559.0 L 823.5,558.0 L 823.5,557.0 L 823.5,556.0 L 823.5,555.0 L 823.5,554.0 L 823.5,553.0 L 823.5,552.0 L 823.5,551.0 L 823.5,550.0 L 823.5,549.0 L 823.5,548.0 L 823.5,547.0 L 823.5,546.0 L 823.5,545.0 L 823.5,544.0 L 823.5,543.0 L 823.5,542.0 L 823.5,541.0 L 823.5,540.0 L 823.5,539.0 L 823.5,538.0 L 823.5,537.0 L 823.5,536.0 L 823.5,535.0 L 823.5,534.0 L 823.5,533.0 L 823.5,532.0 L 823.5,531.0 L 823.5,530.0 L 823.5,529.0 L 823.5,528.0 L 823.5,527.0 L 823.5,526.0 L 823.5,525.0 L 823.5,524.0 L 823.5,523.0 L 823.5,522.0 L 823.5,521.0 L 823.5,520.0 L 823.5,519.0 L 823.5,518.0 L 823.5,517.0 L 823.5,516.0 L 823.5,515.0 L 823.5,514.0 L 823.5,513.0 L 823.5,512.0 L 823.5,511.0 L 823.5,510.0 L 823.5,509.0 L 823.5,508.0 L 823.5,507.0 L 823.5,506.0 L 823.5,505.0 L 823.5,504.0 L 823.5,503.0 L 823.5,502.0 L 823.5,501.0 L 823.5,500.0 L 823.5,499.0 L 823.5,498.0 L 823.5,497.0 L 823.5,496.0 L 823.5,495.0 L 823.5,494.0 L 823.5,493.0 L 823.5,492.0 L 823.5,491.0 L 823.5,490.0 L 823.5,489.0 L 823.5,488.0 L 823.5,487.0 L 823.5,486.0 L 823.5,485.0 L 823.5,484.0 L 823.5,483.0 L 823.5,482.0 L 823.5,481.0 L 823.5,480.0 L 823.5,479.0 L 823.5,478.0 L 823.5,477.0 L 823.5,476.0 L 823.5,475.0 L 823.5,474.0 L 823.5,473.0 L 823.5,472.0 L 823.5,471.0 L 823.5,470.0 L 823.5,469.0 L 823.5,468.0 L 823.5,467.0 L 823.5,466.0 L 823.5,465.0 L 823.5,464.0 L 823.5,463.0 L 823.5,462.0 L 823.5,461.0 L 823.5,460.0 L 823.5,459.0 L 823.5,458.0 L 823.5,457.0 L 823.5,456.0 L 823.5,455.0 L 823.5,454.0 L 823.5,453.0 L 823.5,452.0 L 823.5,451.0 L 823.5,450.0 L 824.0,449.5 L 824.5,449.0 L 824.5,448.0 L 824.5,447.0 L 824.5,446.0 L 824.5,445.0 L 824.5,444.0 L 824.5,443.0 L 824.5,442.0 L 824.5,441.0 L 824.5,440.0 L 824.5,439.0 L 824.5,438.0 L 824.5,437.0 L 824.5,436.0 L 824.5,435.0 L 824.5,434.0 L 824.5,433.0 L 824.5,432.0 L 824.5,431.0 L 824.5,430.0 L 824.5,429.0 L 824.5,428.0 L 824.5,427.0 L 824.5,426.0 L 824.5,425.0 L 824.5,424.0 L 824.5,423.0 L 824.5,422.0 L 824.5,421.0 L 824.5,420.0 L 824.5,419.0 L 824.5,418.0 L 824.5,417.0 L 824.5,416.0 L 824.5,415.0 L 824.5,414.0 L 824.5,413.0 L 824.5,412.0 L 824.5,411.0 L 824.5,410.0 L 824.5,409.0 L 824.5,408.0 L 824.5,407.0 L 824.5,406.0 L 824.5,405.0 L 824.5,404.0 L 824.5,403.0 L 824.5,402.0 L 824.5,401.0 L 824.5,400.0 L 824.5,399.0 L 824.5,398.0 L 824.5,397.0 L 824.5,396.0 L 824.5,395.0 L 824.5,394.0 L 824.5,393.0 L 824.5,392.0 L 824.5,391.0 L 824.5,390.0 L 824.5,389.0 L 824.5,388.0 L 824.5,387.0 L 824.5,386.0 L 824.5,385.0 L 824.5,384.0 L 824.5,383.0 L 824.5,382.0 L 824.5,381.0 L 824.5,380.0 L 824.5,379.0 L 824.5,378.0 L 824.5,377.0 L 824.5,376.0 L 824.5,375.0 L 824.5,374.0 L 824.5,373.0 L 824.5,372.0 L 824.5,371.0 L 824.5,370.0 L 824.5,369.0 L 824.5,368.0 L 824.5,367.0 L 824.5,366.0 L 824.5,365.0 L 824.5,364.0 L 824.5,363.0 L 824.5,362.0 L 824.5,361.0 L 824.5,360.0 L 824.5,359.0 L 824.5,358.0 L 824.5,357.0 L 824.5,356.0 L 824.5,355.0 L 824.5,354.0 L 824.5,353.0 L 824.5,352.0 L 824.5,351.0 L 824.5,350.0 L 824.5,349.0 L 824.5,348.0 L 824.5,347.0 L 824.5,346.0 L 824.5,345.0 L 824.5,344.0 L 824.5,343.0 L 824.5,342.0 L 824.5,341.0 L 824.5,340.0 L 824.5,339.0 L 824.5,338.0 L 824.5,337.0 L 824.5,336.0 L 824.5,335.0 L 824.5,334.0 L 824.5,333.0 L 824.5,332.0 L 824.5,331.0 L 824.5,330.0 L 824.5,329.0 L 824.5,328.0 L 824.5,327.0 L 824.5,326.0 L 824.5,325.0 L 824.5,324.0 L 824.5,323.0 L 824.5,322.0 L 824.5,321.0 L 824.5,320.0 L 824.5,319.0 L 824.5,318.0 L 825.0,317.5 L 826.0,317.5 L 827.0,317.5 L 828.0,317.5 L 829.0,317.5 L 830.0,317.5 L 831.0,317.5 L 832.0,317.5 L 833.0,317.5 L 833.5,317.0 L 834.0,316.5 L 835.0,316.5 L 836.0,316.5 L 837.0,316.5 L 838.0,316.5 L 839.0,316.5 L 840.0,316.5 L 841.0,316.5 L 842.0,316.5 L 842.5,317.0 L 843.0,317.5 L 844.0,317.5 L 845.0,317.5 L 846.0,317.5 L 847.0,317.5 L 848.0,317.5 L 849.0,317.5 L 850.0,317.5 L 851.0,317.5 L 852.0,317.5 L 853.0,317.5 L 854.0,317.5 L 855.0,317.5 L 856.0,317.5 L 857.0,317.5 L 858.0,317.5 L 859.0,317.5 L 860.0,317.5 L 861.0,317.5 L 862.0,317.5 L 863.0,317.5 L 864.0,317.5 L 865.0,317.5 L 866.0,317.5 L 867.0,317.5 L 868.0,317.5 L 869.0,317.5 L 870.0,317.5 L 870.5,317.0 L 871.0,316.5 L 872.0,316.5 L 872.5,317.0 L 873.0,317.5 L 873.5,317.0 L 874.0,316.5 L 875.0,316.5 L 876.0,316.5 L 876.5,317.0 L 877.0,317.5 L 878.0,317.5 L 879.0,317.5 L 880.0,317.5 L 881.0,317.5 L 882.0,317.5 L 883.0,317.5 L 884.0,317.5 L 885.0,317.5 L 886.0,317.5 L 887.0,317.5 L 888.0,317.5 L 889.0,317.5 L 890.0,317.5 L 891.0,317.5 L 892.0,317.5 L 893.0,317.5 L 894.0,317.5 L 895.0,317.5 L 896.0,317.5 L 897.0,317.5 L 898.0,317.5 L 899.0,317.5 L 900.0,317.5 L 901.0,317.5 L 902.0,317.5 L 903.0,317.5 L 904.0,317.5 L 905.0,317.5 L 906.0,317.5 L 907.0,317.5 L 908.0,317.5 L 909.0,317.5 L 910.0,317.5 L 911.0,317.5 L 912.0,317.5 L 913.0,317.5 L 914.0,317.5 L 915.0,317.5 L 916.0,317.5 L 917.0,317.5 L 918.0,317.5 L 919.0,317.5 L 920.0,317.5 L 921.0,317.5 L 922.0,317.5 L 923.0,317.5 L 924.0,317.5 L 925.0,317.5 L 926.0,317.5 L 927.0,317.5 L 928.0,317.5 L 928.5,317.0 L 929.0,316.5 L 929.5,317.0 L 929.5,318.0 L 929.5,319.0 L 929.5,320.0 L 929.5,321.0 L 929.5,322.0 L 929.5,323.0 L 929.5,324.0 L 929.5,325.0 L 929.5,326.0 L 929.5,327.0 L 929.5,328.0 L 929.5,329.0 L 929.5,330.0 L 929.5,331.0 L 929.5,332.0 L 929.5,333.0 L 929.5,334.0 L 929.5,335.0 L 929.5,336.0 L 929.5,337.0 L 929.5,338.0 L 929.5,339.0 L 929.5,340.0 L 929.5,341.0 L 929.5,342.0 L 929.5,343.0 L 929.5,344.0 L 929.5,345.0 L 929.5,346.0 L 929.5,347.0 L 929.5,348.0 L 929.5,349.0 L 929.5,350.0 L 929.5,351.0 L 929.5,352.0 L 929.5,353.0 L 929.5,354.0 L 929.5,355.0 L 929.5,356.0 L 929.5,357.0 L 929.5,358.0 L 929.5,359.0 L 929.5,360.0 L 929.5,361.0 L 929.5,362.0 L 929.5,363.0 L 929.5,364.0 L 929.5,365.0 L 929.5,366.0 L 929.5,367.0 L 929.5,368.0 L 929.5,369.0 L 929.5,370.0 L 929.5,371.0 L 929.5,372.0 L 929.5,373.0 L 929.5,374.0 L 929.5,375.0 L 929.5,376.0 L 929.5,377.0 L 929.5,378.0 L 929.5,379.0 L 929.5,380.0 L 929.5,381.0 L 929.5,382.0 L 929.5,383.0 L 929.5,384.0 L 929.5,385.0 L 929.5,386.0 L 929.5,387.0 L 929.5,388.0 L 929.5,389.0 L 929.5,390.0 L 929.5,391.0 L 929.5,392.0 L 929.5,393.0 L 929.5,394.0 L 929.5,395.0 L 929.5,396.0 L 929.5,397.0 L 929.5,398.0 L 929.5,399.0 L 929.5,400.0 L 929.5,401.0 L 929.5,402.0 L 929.5,403.0 L 929.5,404.0 L 929.5,405.0 L 929.5,406.0 L 929.5,407.0 L 929.5,408.0 L 929.5,409.0 L 929.5,410.0 L 929.5,411.0 L 929.5,412.0 L 929.5,413.0 L 929.5,414.0 L 929.5,415.0 L 929.5,416.0 L 929.5,417.0 L 929.5,418.0 L 929.5,419.0 L 929.5,420.0 L 929.5,421.0 L 929.5,422.0 L 929.5,423.0 L 929.5,424.0 L 929.5,425.0 L 929.5,426.0 L 929.5,427.0 L 929.5,428.0 L 929.5,429.0 L 929.5,430.0 L 929.5,431.0 L 929.5,432.0 L 929.5,433.0 L 929.5,434.0 L 929.5,435.0 L 929.5,436.0 L 929.5,437.0 L 929.5,438.0 L 929.5,439.0 L 929.5,440.0 L 929.5,441.0 L 929.5,442.0 L 929.5,443.0 L 929.5,444.0 L 929.5,445.0 L 929.5,446.0 L 929.5,447.0 L 929.5,448.0 L 929.5,449.0 L 929.5,450.0 L 929.5,451.0 L 929.5,452.0 L 929.5,453.0 L 929.5,454.0 L 929.5,455.0 L 929.5,456.0 L 929.5,457.0 L 929.5,458.0 L 929.5,459.0 L 929.5,460.0 L 929.5,461.0 L 929.5,462.0 L 929.5,463.0 L 929.5,464.0 L 929.5,465.0 L 929.5,466.0 L 929.5,467.0 L 929.5,468.0 L 929.5,469.0 L 929.5,470.0 L 929.5,471.0 L 929.5,472.0 L 929.5,473.0 L 929.5,474.0 L 929.5,475.0 L 929.5,476.0 L 929.5,477.0 L 929.5,478.0 L 929.5,479.0 L 929.5,480.0 L 929.5,481.0 L 929.5,482.0 L 929.5,483.0 L 929.5,484.0 L 929.5,485.0 L 929.5,486.0 L 929.5,487.0 L 929.5,488.0 L 929.5,489.0 L 929.5,490.0 L 929.5,491.0 L 929.5,492.0 L 929.5,493.0 L 929.5,494.0 L 929.5,495.0 L 929.5,496.0 L 929.5,497.0 L 929.5,498.0 L 929.5,499.0 L 929.5,500.0 L 929.5,501.0 L 929.5,502.0 L 929.5,503.0 L 929.5,504.0 L 929.5,505.0 L 929.5,506.0 L 929.5,507.0 L 929.5,508.0 L 929.5,509.0 L 929.5,510.0 L 929.5,511.0 L 929.5,512.0 L 929.5,513.0 L 929.5,514.0 L 929.5,515.0 L 929.5,516.0 L 929.5,517.0 L 929.5,518.0 L 929.5,519.0 L 929.5,520.0 L 929.5,521.0 L 929.5,522.0 L 929.5,523.0 L 929.5,524.0 L 929.5,525.0 L 929.5,526.0 L 929.5,527.0 L 929.5,528.0 L 929.5,529.0 L 929.5,530.0 L 929.5,531.0 L 929.5,532.0 L 929.5,533.0 L 929.5,534.0 L 929.5,535.0 L 929.5,536.0 L 929.5,537.0 L 929.5,538.0 L 929.5,539.0 L 929.5,540.0 L 929.5,541.0 L 929.5,542.0 L 929.5,543.0 L 929.5,544.0 L 929.5,545.0 L 929.5,546.0 L 929.5,547.0 L 929.5,548.0 L 929.5,549.0 L 929.5,550.0 L 929.5,551.0 L 929.5,552.0 L 929.5,553.0 L 929.5,554.0 L 929.5,555.0 L 929.5,556.0 L 929.5,557.0 L 929.5,558.0 L 929.5,559.0 L 929.5,560.0 L 929.5,561.0 L 929.5,562.0 L 929.5,563.0 L 929.5,564.0 L 929.5,565.0 L 929.5,566.0 L 929.5,567.0 L 929.5,568.0 L 929.5,569.0 L 929.5,570.0 L 929.5,571.0 L 929.5,572.0 L 929.5,573.0 L 929.5,574.0 L 929.5,575.0 L 929.5,576.0 L 929.5,577.0 L 929.5,578.0 L 929.5,579.0 L 929.5,580.0 L 929.5,581.0 L 929.5,582.0 L 929.5,583.0 L 929.5,584.0 L 929.5,585.0 L 929.5,586.0 L 929.5,587.0 L 929.5,588.0 L 929.5,589.0 L 929.5,590.0 L 929.5,591.0 L 929.5,592.0 L 929.5,593.0 L 929.5,594.0 L 929.5,595.0 L 929.5,596.0 L 929.5,597.0 L 929.5,598.0 L 929.5,599.0 L 929.5,600.0 L 929.5,601.0 L 929.5,602.0 L 929.5,603.0 L 929.5,604.0 L 929.5,605.0 L 929.5,606.0 L 929.5,607.0 L 929.5,608.0 L 929.5,609.0 L 929.5,610.0 L 929.5,611.0 L 929.5,612.0 L 929.5,613.0 L 929.5,614.0 L 929.5,615.0 L 929.5,616.0 L 929.5,617.0 L 929.5,618.0 L 929.5,619.0 L 929.5,620.0 L 929.5,621.0 L 929.5,622.0 L 929.5,623.0 L 929.5,624.0 L 929.5,625.0 L 929.5,626.0 L 929.5,627.0 L 929.5,628.0 L 929.5,629.0 L 929.5,630.0 L 929.5,631.0 L 929.5,632.0 L 929.5,633.0 L 929.5,634.0 L 929.5,635.0 L 929.5,636.0 L 929.5,637.0 L 929.5,638.0 L 929.5,639.0 L 929.5,640.0 L 929.5,641.0 L 929.5,642.0 L 929.5,643.0 L 929.5,644.0 L 929.5,645.0 L 929.5,646.0 L 929.5,647.0 L 929.5,648.0 L 929.5,649.0 L 929.5,650.0 L 929.5,651.0 L 929.5,652.0 L 929.5,653.0 L 929.5,654.0 L 929.5,655.0 L 929.5,656.0 L 929.5,657.0 L 929.5,658.0 L 929.5,659.0 L 929.0,659.5 L 928.5,660.0 L 928.5,661.0 L 928.5,662.0 L 928.5,663.0 L 928.5,664.0 L 928.5,665.0 L 928.5,666.0 L 928.5,667.0 L 928.5,668.0 L 928.5,669.0 L 928.5,670.0 L 928.5,671.0 L 928.5,672.0 L 928.5,673.0 L 928.5,674.0 L 928.5,675.0 L 928.5,676.0 L 928.5,677.0 L 928.5,678.0 L 928.5,679.0 L 928.5,680.0 L 928.5,681.0 L 928.5,682.0 L 928.5,683.0 L 928.5,684.0 L 928.5,685.0 L 928.5,686.0 L 928.5,687.0 L 928.5,688.0 L 928.5,689.0 L 928.5,690.0 L 928.5,691.0 L 928.5,692.0 L 928.5,693.0 L 928.5,694.0 L 928.5,695.0 L 928.5,696.0 L 928.5,697.0 L 928.5,698.0 L 928.5,699.0 L 928.5,700.0 L 928.5,701.0 L 928.5,702.0 L 928.5,703.0 L 928.5,704.0 L 928.5,705.0 L 928.5,706.0 L 928.5,707.0 L 928.5,708.0 L 928.5,709.0 L 928.5,710.0 L 928.5,711.0 L 928.5,712.0 L 928.5,713.0 L 928.5,714.0 L 928.5,715.0 L 928.5,716.0 L 928.5,717.0 L 928.5,718.0 L 928.5,719.0 L 928.5,720.0 L 928.5,721.0 L 928.5,722.0 L 928.5,723.0 L 928.5,724.0 L 928.5,725.0 L 928.5,726.0 L 928.5,727.0 L 928.5,728.0 L 928.5,729.0 L 928.5,730.0 L 928.5,731.0 L 928.5,732.0 L 928.5,733.0 L 928.5,734.0 L 928.5,735.0 L 928.5,736.0 L 928.5,737.0 L 928.5,738.0 L 928.5,739.0 L 928.5,740.0 L 928.5,741.0 L 928.5,742.0 L 928.5,743.0 L 928.5,744.0 L 928.5,745.0 L 928.5,746.0 L 928.5,747.0 L 928.5,748.0 L 928.0,748.5 L 927.5,749.0 L 927.5,750.0 L 927.5,751.0 L 927.5,752.0 L 927.5,753.0 L 927.5,754.0 L 927.5,755.0 L 927.0,755.5 L 926.5,756.0 L 926.5,757.0 L 926.5,758.0 L 926.5,759.0 L 926.5,760.0 L 926.0,760.5 L 925.5,761.0 L 925.5,762.0 L 925.5,763.0 L 925.5,764.0 L 925.5,765.0 L 925.5,766.0 L 925.0,766.5 L 924.5,767.0 L 924.5,768.0 L 924.5,769.0 L 924.5,770.0 L 924.0,770.5 L 923.5,771.0 L 923.5,772.0 L 923.5,773.0 L 923.5,774.0 L 923.0,774.5 L 922.5,775.0 L 922.5,776.0 L 922.5,777.0 L 922.0,777.5 L 921.5,778.0 L 921.5,779.0 L 921.5,780.0 L 921.5,781.0 L 921.0,781.5 L 920.5,782.0 L 920.5,783.0 L 920.5,784.0 L 920.0,784.5 L 919.5,785.0 L 919.5,786.0 L 919.5,787.0 L 919.0,787.5 L 918.5,788.0 L 918.5,789.0 L 918.0,789.5 L 917.5,790.0 L 917.5,791.0 L 917.5,792.0 L 917.0,792.5 L 916.5,793.0 L 916.5,794.0 L 916.0,794.5 L 915.5,795.0 L 915.5,796.0 L 915.5,797.0 L 915.0,797.5 L 914.5,798.0 L 914.5,799.0 L 914.0,799.5 L 913.5,800.0 L 913.5,801.0 L 913.0,801.5 L 912.5,802.0 L 912.5,803.0 L 912.0,803.5 L 911.5,804.0 L 911.5,805.0 L 911.0,805.5 L 910.5,806.0 L 910.5,807.0 L 910.0,807.5 L 909.5,808.0 L 909.5,809.0 L 909.0,809.5 L 908.5,810.0 L 908.5,811.0 L 908.0,811.5 L 907.5,812.0 L 907.5,813.0 L 907.0,813.5 L 906.5,814.0 L 906.5,815.0 L 906.0,815.5 L 905.5,816.0 L 905.5,817.0 L 905.0,817.5 L 904.5,818.0 L 904.0,818.5 L 903.5,819.0 L 903.5,820.0 L 903.0,820.5 L 902.5,821.0 L 902.5,822.0 L 902.0,822.5 L 901.5,823.0 L 901.0,823.5 L 900.5,824.0 L 900.5,825.0 L 900.0,825.5 L 899.5,826.0 L 899.0,826.5 L 898.5,827.0 L 898.5,828.0 L 898.0,828.5 L 897.5,829.0 L 897.0,829.5 L 896.5,830.0 L 896.0,830.5 L 895.5,831.0 L 895.5,832.0 L 895.0,832.5 L 894.5,833.0 L 894.0,833.5 L 893.5,834.0 L 893.0,834.5 L 892.5,835.0 L 892.5,836.0 L 892.0,836.5 L 891.5,837.0 L 891.0,837.5 L 890.5,838.0 L 890.5,839.0 L 890.0,839.5 L 889.5,840.0 L 889.0,840.5 L 888.5,841.0 L 888.0,841.5 L 887.5,842.0 L 887.0,842.5 L 886.5,843.0 L 886.0,843.5 L 885.5,844.0 L 885.0,844.5 L 884.5,845.0 L 884.5,846.0 L 884.0,846.5 L 883.5,847.0 L 883.0,847.5 L 882.5,848.0 L 882.0,848.5 L 881.5,849.0 L 881.0,849.5 L 880.5,850.0 L 880.0,850.5 L 879.5,851.0 L 879.0,851.5 L 878.5,852.0 L 878.0,852.5 L 877.5,853.0 L 877.0,853.5 L 876.5,854.0 L 876.0,854.5 L 875.5,855.0 L 875.0,855.5 L 874.5,856.0 L 874.0,856.5 L 873.5,857.0 L 873.0,857.5 L 872.5,858.0 L 872.0,858.5 L 871.5,859.0 L 871.0,859.5 L 870.5,860.0 L 870.0,860.5 L 869.5,861.0 L 869.0,861.5 L 868.5,862.0 L 868.0,862.5 L 867.5,863.0 L 867.0,863.5 L 866.0,863.5 L 865.5,864.0 L 865.0,864.5 L 864.5,865.0 L 864.0,865.5 L 863.5,866.0 L 863.0,866.5 L 862.5,867.0 L 862.0,867.5 L 861.0,867.5 L 860.5,868.0 L 860.0,868.5 L 859.5,869.0 L 859.0,869.5 L 858.5,870.0 L 858.0,870.5 L 857.5,871.0 L 857.0,871.5 L 856.0,871.5 L 855.5,872.0 L 855.0,872.5 L 854.5,873.0 L 854.0,873.5 L 853.0,873.5 L 852.5,874.0 L 852.0,874.5 L 851.5,875.0 L 851.0,875.5 L 850.0,875.5 L 849.5,876.0 L 849.0,876.5 L 848.5,877.0 L 848.0,877.5 L 847.5,878.0 L 847.0,878.5 L 846.0,878.5 L 845.5,879.0 L 845.0,879.5 L 844.0,879.5 L 843.5,880.0 L 843.0,880.5 L 842.5,881.0 L 842.0,881.5 L 841.0,881.5 L 840.5,882.0 L 840.0,882.5 L 839.0,882.5 L 838.5,883.0 L 838.0,883.5 L 837.5,884.0 L 837.0,884.5 L 836.0,884.5 L 835.5,885.0 L 835.0,885.5 L 834.0,885.5 L 833.5,886.0 L 833.0,886.5 L 832.0,886.5 L 831.5,887.0 L 831.0,887.5 L 830.0,887.5 L 829.5,888.0 L 829.0,888.5 L 828.0,888.5 L 827.5,889.0 L 827.0,889.5 L 826.0,889.5 L 825.5,890.0 L 825.0,890.5 L 824.0,890.5 L 823.5,891.0 L 823.0,891.5 L 822.0,891.5 L 821.0,891.5 L 820.5,892.0 L 820.0,892.5 L 819.0,892.5 L 818.5,893.0 L 818.0,893.5 L 817.0,893.5 L 816.5,894.0 L 816.0,894.5 L 815.0,894.5 L 814.0,894.5 L 813.5,895.0 L 813.0,895.5 L 812.0,895.5 L 811.5,896.0 L 811.0,896.5 L 810.0,896.5 L 809.0,896.5 L 808.5,897.0 L 808.0,897.5 L 807.0,897.5 L 806.0,897.5 L 805.5,898.0 L 805.0,898.5 L 804.0,898.5 L 803.0,898.5 L 802.0,898.5 L 801.5,899.0 L 801.0,899.5 L 800.0,899.5 L 799.0,899.5 L 798.5,900.0 L 798.0,900.5 L 797.0,900.5 L 796.0,900.5 L 795.0,900.5 L 794.5,901.0 L 794.0,901.5 L 793.0,901.5 L 792.0,901.5 L 791.0,901.5 L 790.5,902.0 L 790.0,902.5 L 789.0,902.5 L 788.0,902.5 L 787.0,902.5 L 786.0,902.5 L 785.5,903.0 L 785.0,903.5 L 784.0,903.5 L 783.0,903.5 L 782.0,903.5 L 781.0,903.5 L 780.5,904.0 L 780.0,904.5 L 779.0,904.5 L 778.0,904.5 L 777.0,904.5 L 776.0,904.5 L 775.0,904.5 L 774.0,904.5 L 773.0,904.5 L 772.5,905.0 L 772.0,905.5 L 771.0,905.5 L 770.0,905.5 L 769.0,905.5 L 768.0,905.5 L 767.0,905.5 L 766.0,905.5 L 765.0,905.5 L 764.0,905.5 L 763.0,905.5 L 762.0,905.5 L 761.0,905.5 L 760.0,905.5 L 759.0,905.5 L 758.0,905.5 L 757.0,905.5 L 756.5,906.0 L 756.0,906.5 Z" fill="#2563EB" fill-rule="evenodd"/>
<path d="M 433.0,905.5 L 432.0,905.5 L 431.0,905.5 L 430.0,905.5 L 429.0,905.5 L 428.0,905.5 L 427.0,905.5 L 426.0,905.5 L 425.0,905.5 L 424.0,905.5 L 423.0,905.5 L 422.0,905.5 L 421.0,905.5 L 420.0,905.5 L 419.0,905.5 L 418.0,905.5 L 417.0,905.5 L 416.0,905.5 L 415.0,905.5 L 414.0,905.5 L 413.0,905.5 L 412.0,905.5 L 411.0,905.5 L 410.0,905.5 L 409.0,905.5 L 408.0,905.5 L 407.0,905.5 L 406.0,905.5 L 405.0,905.5 L 404.0,905.5 L 403.0,905.5 L 402.0,905.5 L 401.0,905.5 L 400.0,905.5 L 399.0,905.5 L 398.0,905.5 L 397.0,905.5 L 396.0,905.5 L 395.0,905.5 L 394.0,905.5 L 393.0,905.5 L 392.0,905.5 L 391.0,905.5 L 390.0,905.5 L 389.0,905.5 L 388.0,905.5 L 387.0,905.5 L 386.0,905.5 L 385.0,905.5 L 384.0,905.5 L 383.0,905.5 L 382.0,905.5 L 381.0,905.5 L 380.0,905.5 L 379.0,905.5 L 378.0,905.5 L 377.0,905.5 L 376.0,905.5 L 375.0,905.5 L 374.0,905.5 L 373.0,905.5 L 372.0,905.5 L 371.0,905.5 L 370.0,905.5 L 369.0,905.5 L 368.0,905.5 L 367.0,905.5 L 366.0,905.5 L 365.0,905.5 L 364.0,905.5 L 363.0,905.5 L 362.0,905.5 L 361.0,905.5 L 360.0,905.5 L 359.0,905.5 L 358.0,905.5 L 357.0,905.5 L 356.0,905.5 L 355.0,905.5 L 354.0,905.5 L 353.0,905.5 L 352.0,905.5 L 351.0,905.5 L 350.0,905.5 L 349.0,905.5 L 348.0,905.5 L 347.0,905.5 L 346.0,905.5 L 345.0,905.5 L 344.0,905.5 L 343.0,905.5 L 342.0,905.5 L 341.0,905.5 L 340.0,905.5 L 339.0,905.5 L 338.0,905.5 L 337.0,905.5 L 336.0,905.5 L 335.0,905.5 L 334.0,905.5 L 333.0,905.5 L 332.0,905.5 L 331.0,905.5 L 330.0,905.5 L 329.5,905.0 L 329.5,904.0 L 329.5,903.0 L 329.5,902.0 L 329.5,901.0 L 329.5,900.0 L 329.5,899.0 L 329.5,898.0 L 329.5,897.0 L 329.5,896.0 L 329.5,895.0 L 329.5,894.0 L 329.5,893.0 L 329.5,892.0 L 329.5,891.0 L 329.5,890.0 L 329.5,889.0 L 329.5,888.0 L 329.5,887.0 L 329.5,886.0 L 329.5,885.0 L 329.5,884.0 L 329.5,883.0 L 329.5,882.0 L 329.5,881.0 L 329.5,880.0 L 329.5,879.0 L 329.5,878.0 L 329.5,877.0 L 329.5,876.0 L 329.5,875.0 L 329.5,874.0 L 329.5,873.0 L 329.5,872.0 L 329.5,871.0 L 329.5,870.0 L 329.5,869.0 L 329.5,868.0 L 329.5,867.0 L 329.5,866.0 L 329.5,865.0 L 329.5,864.0 L 329.5,863.0 L 329.5,862.0 L 329.5,861.0 L 329.5,860.0 L 329.5,859.0 L 329.5,858.0 L 329.5,857.0 L 329.5,856.0 L 329.5,855.0 L 329.5,854.0 L 329.5,853.0 L 329.5,852.0 L 329.5,851.0 L 329.5,850.0 L 329.5,849.0 L 329.5,848.0 L 329.5,847.0 L 329.5,846.0 L 329.5,845.0 L 329.5,844.0 L 329.5,843.0 L 329.5,842.0 L 329.5,841.0 L 329.5,840.0 L 329.5,839.0 L 329.5,838.0 L 329.5,837.0 L 329.5,836.0 L 329.5,835.0 L 329.5,834.0 L 329.5,833.0 L 329.5,832.0 L 329.5,831.0 L 329.5,830.0 L 329.5,829.0 L 329.5,828.0 L 329.5,827.0 L 329.5,826.0 L 329.5,825.0 L 329.5,824.0 L 329.5,823.0 L 329.5,822.0 L 329.5,821.0 L 329.5,820.0 L 329.5,819.0 L 329.5,818.0 L 329.5,817.0 L 329.5,816.0 L 329.5,815.0 L 329.5,814.0 L 329.5,813.0 L 329.5,812.0 L 329.5,811.0 L 329.5,810.0 L 329.5,809.0 L 329.5,808.0 L 329.5,807.0 L 329.5,806.0 L 329.5,805.0 L 329.5,804.0 L 329.5,803.0 L 329.5,802.0 L 329.5,801.0 L 329.5,800.0 L 329.5,799.0 L 329.5,798.0 L 329.5,797.0 L 329.5,796.0 L 329.5,795.0 L 329.5,794.0 L 329.5,793.0 L 329.5,792.0 L 329.5,791.0 L 329.5,790.0 L 329.5,789.0 L 329.5,788.0 L 329.5,787.0 L 329.5,786.0 L 329.5,785.0 L 329.5,784.0 L 329.5,783.0 L 329.5,782.0 L 329.5,781.0 L 329.5,780.0 L 329.5,779.0 L 329.5,778.0 L 329.5,777.0 L 329.5,776.0 L 329.5,775.0 L 329.5,774.0 L 329.5,773.0 L 329.5,772.0 L 329.5,771.0 L 329.5,770.0 L 329.5,769.0 L 329.5,768.0 L 329.5,767.0 L 329.5,766.0 L 329.5,765.0 L 329.5,764.0 L 329.5,763.0 L 329.5,762.0 L 329.5,761.0 L 329.5,760.0 L 329.5,759.0 L 329.5,758.0 L 329.5,757.0 L 329.5,756.0 L 329.5,755.0 L 329.5,754.0 L 329.5,753.0 L 329.5,752.0 L 329.5,751.0 L 329.5,750.0 L 329.5,749.0 L 329.5,748.0 L 329.5,747.0 L 329.5,746.0 L 329.5,745.0 L 329.5,744.0 L 329.5,743.0 L 329.5,742.0 L 329.5,741.0 L 329.5,740.0 L 329.5,739.0 L 329.5,738.0 L 329.5,737.0 L 329.5,736.0 L 329.5,735.0 L 329.5,734.0 L 329.5,733.0 L 329.5,732.0 L 329.5,731.0 L 329.5,730.0 L 329.5,729.0 L 329.5,728.0 L 329.5,727.0 L 329.5,726.0 L 329.5,725.0 L 329.5,724.0 L 329.5,723.0 L 329.5,722.0 L 329.5,721.0 L 329.5,720.0 L 329.5,719.0 L 329.5,718.0 L 329.5,717.0 L 329.5,716.0 L 329.5,715.0 L 329.5,714.0 L 329.5,713.0 L 329.5,712.0 L 329.5,711.0 L 329.5,710.0 L 329.5,709.0 L 329.5,708.0 L 329.5,707.0 L 329.5,706.0 L 329.5,705.0 L 329.5,704.0 L 329.5,703.0 L 329.5,702.0 L 329.5,701.0 L 329.5,700.0 L 329.5,699.0 L 329.5,698.0 L 329.5,697.0 L 329.5,696.0 L 329.5,695.0 L 329.5,694.0 L 329.5,693.0 L 329.5,692.0 L 329.5,691.0 L 329.5,690.0 L 329.5,689.0 L 329.5,688.0 L 329.5,687.0 L 329.5,686.0 L 329.5,685.0 L 329.5,684.0 L 329.5,683.0 L 329.5,682.0 L 329.5,681.0 L 329.5,680.0 L 329.5,679.0 L 329.5,678.0 L 329.5,677.0 L 329.5,676.0 L 329.5,675.0 L 329.5,674.0 L 329.5,673.0 L 329.5,672.0 L 329.5,671.0 L 329.5,670.0 L 329.5,669.0 L 329.5,668.0 L 329.5,667.0 L 329.5,666.0 L 329.5,665.0 L 329.5,664.0 L 329.5,663.0 L 329.5,662.0 L 329.5,661.0 L 329.5,660.0 L 329.5,659.0 L 329.5,658.0 L 329.5,657.0 L 329.5,656.0 L 329.5,655.0 L 329.5,654.0 L 329.5,653.0 L 329.5,652.0 L 329.5,651.0 L 329.5,650.0 L 329.5,649.0 L 329.5,648.0 L 329.5,647.0 L 329.5,646.0 L 329.5,645.0 L 329.5,644.0 L 329.5,643.0 L 329.5,642.0 L 329.5,641.0 L 329.5,640.0 L 329.5,639.0 L 329.5,638.0 L 329.5,637.0 L 329.5,636.0 L 329.5,635.0 L 329.5,634.0 L 329.5,633.0 L 329.5,632.0 L 329.5,631.0 L 329.5,630.0 L 329.5,629.0 L 329.5,628.0 L 329.5,627.0 L 329.5,626.0 L 329.5,625.0 L 329.5,624.0 L 329.5,623.0 L 329.5,622.0 L 329.5,621.0 L 329.5,620.0 L 329.5,619.0 L 329.5,618.0 L 329.5,617.0 L 329.5,616.0 L 329.5,615.0 L 329.5,614.0 L 329.5,613.0 L 329.5,612.0 L 329.5,611.0 L 329.5,610.0 L 329.5,609.0 L 329.5,608.0 L 329.5,607.0 L 329.5,606.0 L 329.5,605.0 L 329.5,604.0 L 329.5,603.0 L 329.5,602.0 L 329.5,601.0 L 329.5,600.0 L 329.5,599.0 L 329.5,598.0 L 329.5,597.0 L 329.5,596.0 L 329.5,595.0 L 329.5,594.0 L 329.5,593.0 L 329.5,592.0 L 329.5,591.0 L 329.5,590.0 L 329.5,589.0 L 329.5,588.0 L 329.5,587.0 L 329.5,586.0 L 329.5,585.0 L 329.5,584.0 L 329.5,583.0 L 329.5,582.0 L 329.5,581.0 L 329.5,580.0 L 329.5,579.0 L 329.5,578.0 L 329.5,577.0 L 329.5,576.0 L 329.5,575.0 L 329.5,574.0 L 329.5,573.0 L 329.5,572.0 L 329.5,571.0 L 329.5,570.0 L 329.5,569.0 L 329.5,568.0 L 329.5,567.0 L 329.5,566.0 L 329.5,565.0 L 329.5,564.0 L 329.5,563.0 L 329.5,562.0 L 329.5,561.0 L 329.5,560.0 L 329.5,559.0 L 329.5,558.0 L 329.5,557.0 L 329.5,556.0 L 329.5,555.0 L 329.5,554.0 L 329.5,553.0 L 329.5,552.0 L 329.5,551.0 L 329.5,550.0 L 329.5,549.0 L 329.5,548.0 L 329.5,547.0 L 329.5,546.0 L 329.5,545.0 L 329.5,544.0 L 329.5,543.0 L 329.5,542.0 L 329.5,541.0 L 329.5,540.0 L 329.5,539.0 L 329.5,538.0 L 329.5,537.0 L 329.5,536.0 L 329.5,535.0 L 329.5,534.0 L 329.5,533.0 L 329.5,532.0 L 329.5,531.0 L 329.5,530.0 L 329.5,529.0 L 329.5,528.0 L 329.5,527.0 L 329.5,526.0 L 329.5,525.0 L 329.5,524.0 L 329.5,523.0 L 329.5,522.0 L 329.5,521.0 L 329.5,520.0 L 329.5,519.0 L 329.5,518.0 L 329.5,517.0 L 329.5,516.0 L 329.5,515.0 L 329.5,514.0 L 329.5,513.0 L 329.5,512.0 L 329.5,511.0 L 329.5,510.0 L 329.5,509.0 L 329.5,508.0 L 329.5,507.0 L 329.5,506.0 L 329.5,505.0 L 329.5,504.0 L 329.5,503.0 L 329.5,502.0 L 329.5,501.0 L 329.5,500.0 L 329.5,499.0 L 329.5,498.0 L 329.5,497.0 L 329.5,496.0 L 329.5,495.0 L 329.5,494.0 L 329.5,493.0 L 329.5,492.0 L 329.5,491.0 L 329.5,490.0 L 330.0,489.5 L 330.5,489.0 L 330.5,488.0 L 330.5,487.0 L 330.5,486.0 L 330.5,485.0 L 330.5,484.0 L 330.5,483.0 L 330.5,482.0 L 330.5,481.0 L 330.5,480.0 L 330.5,479.0 L 330.5,478.0 L 330.5,477.0 L 331.0,476.5 L 331.5,476.0 L 331.5,475.0 L 331.5,474.0 L 331.5,473.0 L 331.5,472.0 L 331.5,471.0 L 332.0,470.5 L 332.5,470.0 L 332.5,469.0 L 332.5,468.0 L 332.5,467.0 L 332.5,466.0 L 332.5,465.0 L 333.0,464.5 L 333.5,464.0 L 333.5,463.0 L 333.5,462.0 L 333.5,461.0 L 333.5,460.0 L 334.0,459.5 L 334.5,459.0 L 334.5,458.0 L 334.5,457.0 L 334.5,456.0 L 335.0,455.5 L 335.5,455.0 L 335.5,454.0 L 335.5,453.0 L 335.5,452.0 L 336.0,451.5 L 336.5,451.0 L 336.5,450.0 L 336.5,449.0 L 337.0,448.5 L 337.5,448.0 L 337.5,447.0 L 337.5,446.0 L 338.0,445.5 L 338.5,445.0 L 338.5,444.0 L 338.5,443.0 L 339.0,442.5 L 339.5,442.0 L 339.5,441.0 L 339.5,440.0 L 340.0,439.5 L 340.5,439.0 L 340.5,438.0 L 340.5,437.0 L 341.0,436.5 L 341.5,436.0 L 341.5,435.0 L 342.0,434.5 L 342.5,434.0 L 342.5,433.0 L 343.0,432.5 L 343.5,432.0 L 343.5,431.0 L 343.5,430.0 L 344.0,429.5 L 344.5,429.0 L 344.5,428.0 L 345.0,427.5 L 345.5,427.0 L 345.5,426.0 L 346.0,425.5 L 346.5,425.0 L 346.5,424.0 L 346.5,423.0 L 347.0,422.5 L 347.5,422.0 L 347.5,421.0 L 348.0,420.5 L 348.5,420.0 L 349.0,419.5 L 349.5,419.0 L 349.5,418.0 L 350.0,417.5 L 350.5,417.0 L 350.5,416.0 L 351.0,415.5 L 351.5,415.0 L 351.5,414.0 L 352.0,413.5 L 352.5,413.0 L 352.5,412.0 L 353.0,411.5 L 353.5,411.0 L 353.5,410.0 L 354.0,409.5 L 354.5,409.0 L 354.5,408.0 L 355.0,407.5 L 355.5,407.0 L 356.0,406.5 L 356.5,406.0 L 356.5,405.0 L 357.0,404.5 L 357.5,404.0 L 358.0,403.5 L 358.5,403.0 L 358.5,402.0 L 359.0,401.5 L 359.5,401.0 L 360.0,400.5 L 360.5,400.0 L 360.5,399.0 L 361.0,398.5 L 361.5,398.0 L 361.5,397.0 L 362.0,396.5 L 362.5,396.0 L 363.0,395.5 L 363.5,395.0 L 364.0,394.5 L 364.5,394.0 L 364.5,393.0 L 365.0,392.5 L 365.5,392.0 L 366.0,391.5 L 366.5,391.0 L 367.0,390.5 L 367.5,390.0 L 367.5,389.0 L 368.0,388.5 L 368.5,388.0 L 369.0,387.5 L 369.5,387.0 L 370.0,386.5 L 370.5,386.0 L 370.5,385.0 L 371.0,384.5 L 371.5,384.0 L 372.0,383.5 L 372.5,383.0 L 373.0,382.5 L 373.5,382.0 L 374.0,381.5 L 374.5,381.0 L 375.0,380.5 L 375.5,380.0 L 376.0,379.5 L 376.5,379.0 L 376.5,378.0 L 377.0,377.5 L 377.5,377.0 L 378.0,376.5 L 378.5,376.0 L 379.0,375.5 L 379.5,375.0 L 380.0,374.5 L 380.5,374.0 L 381.0,373.5 L 381.5,373.0 L 382.0,372.5 L 382.5,372.0 L 383.0,371.5 L 383.5,371.0 L 384.0,370.5 L 384.5,370.0 L 385.0,369.5 L 385.5,369.0 L 386.0,368.5 L 386.5,368.0 L 387.0,367.5 L 387.5,367.0 L 388.0,366.5 L 388.5,366.0 L 389.0,365.5 L 389.5,365.0 L 390.0,364.5 L 391.0,364.5 L 391.5,364.0 L 392.0,363.5 L 392.5,363.0 L 393.0,362.5 L 393.5,362.0 L 394.0,361.5 L 394.5,361.0 L 395.0,360.5 L 395.5,360.0 L 396.0,359.5 L 396.5,359.0 L 397.0,358.5 L 398.0,358.5 L 398.5,358.0 L 399.0,357.5 L 399.5,357.0 L 400.0,356.5 L 400.5,356.0 L 401.0,355.5 L 401.5,355.0 L 402.0,354.5 L 403.0,354.5 L 403.5,354.0 L 404.0,353.5 L 404.5,353.0 L 405.0,352.5 L 405.5,352.0 L 406.0,351.5 L 407.0,351.5 L 407.5,351.0 L 408.0,350.5 L 408.5,350.0 L 409.0,349.5 L 410.0,349.5 L 410.5,349.0 L 411.0,348.5 L 411.5,348.0 L 412.0,347.5 L 413.0,347.5 L 413.5,347.0 L 414.0,346.5 L 414.5,346.0 L 415.0,345.5 L 416.0,345.5 L 416.5,345.0 L 417.0,344.5 L 418.0,344.5 L 418.5,344.0 L 419.0,343.5 L 419.5,343.0 L 420.0,342.5 L 421.0,342.5 L 421.5,342.0 L 422.0,341.5 L 423.0,341.5 L 423.5,341.0 L 424.0,340.5 L 424.5,340.0 L 425.0,339.5 L 426.0,339.5 L 426.5,339.0 L 427.0,338.5 L 428.0,338.5 L 428.5,338.0 L 429.0,337.5 L 430.0,337.5 L 430.5,337.0 L 431.0,336.5 L 432.0,336.5 L 432.5,336.0 L 433.0,335.5 L 434.0,335.5 L 434.5,335.0 L 435.0,334.5 L 436.0,334.5 L 436.5,334.0 L 437.0,333.5 L 438.0,333.5 L 439.0,333.5 L 439.5,333.0 L 440.0,332.5 L 441.0,332.5 L 441.5,332.0 L 442.0,331.5 L 443.0,331.5 L 443.5,331.0 L 444.0,330.5 L 445.0,330.5 L 446.0,330.5 L 446.5,330.0 L 447.0,329.5 L 448.0,329.5 L 449.0,329.5 L 449.5,329.0 L 450.0,328.5 L 451.0,328.5 L 451.5,328.0 L 452.0,327.5 L 453.0,327.5 L 454.0,327.5 L 454.5,327.0 L 455.0,326.5 L 456.0,326.5 L 457.0,326.5 L 457.5,326.0 L 458.0,325.5 L 459.0,325.5 L 460.0,325.5 L 460.5,325.0 L 461.0,324.5 L 462.0,324.5 L 463.0,324.5 L 464.0,324.5 L 464.5,324.0 L 465.0,323.5 L 466.0,323.5 L 467.0,323.5 L 468.0,323.5 L 468.5,323.0 L 469.0,322.5 L 470.0,322.5 L 471.0,322.5 L 472.0,322.5 L 472.5,322.0 L 473.0,321.5 L 474.0,321.5 L 475.0,321.5 L 476.0,321.5 L 476.5,321.0 L 477.0,320.5 L 478.0,320.5 L 479.0,320.5 L 480.0,320.5 L 481.0,320.5 L 482.0,320.5 L 482.5,320.0 L 483.0,319.5 L 484.0,319.5 L 485.0,319.5 L 486.0,319.5 L 487.0,319.5 L 488.0,319.5 L 489.0,319.5 L 489.5,319.0 L 490.0,318.5 L 491.0,318.5 L 492.0,318.5 L 493.0,318.5 L 494.0,318.5 L 495.0,318.5 L 496.0,318.5 L 497.0,318.5 L 498.0,318.5 L 499.0,318.5 L 500.0,318.5 L 501.0,318.5 L 501.5,318.0 L 502.0,317.5 L 503.0,317.5 L 504.0,317.5 L 505.0,317.5 L 506.0,317.5 L 507.0,317.5 L 508.0,317.5 L 509.0,317.5 L 510.0,317.5 L 511.0,317.5 L 512.0,317.5 L 513.0,317.5 L 514.0,317.5 L 515.0,317.5 L 516.0,317.5 L 517.0,317.5 L 518.0,317.5 L 519.0,317.5 L 520.0,317.5 L 521.0,317.5 L 522.0,317.5 L 523.0,317.5 L 524.0,317.5 L 525.0,317.5 L 526.0,317.5 L 527.0,317.5 L 528.0,317.5 L 529.0,317.5 L 530.0,317.5 L 531.0,317.5 L 532.0,317.5 L 533.0,317.5 L 534.0,317.5 L 535.0,317.5 L 536.0,317.5 L 537.0,317.5 L 538.0,317.5 L 539.0,317.5 L 540.0,317.5 L 541.0,317.5 L 542.0,317.5 L 543.0,317.5 L 544.0,317.5 L 545.0,317.5 L 546.0,317.5 L 547.0,317.5 L 548.0,317.5 L 549.0,317.5 L 550.0,317.5 L 551.0,317.5 L 552.0,317.5 L 553.0,317.5 L 554.0,317.5 L 555.0,317.5 L 556.0,317.5 L 557.0,317.5 L 558.0,317.5 L 559.0,317.5 L 560.0,317.5 L 561.0,317.5 L 562.0,317.5 L 563.0,317.5 L 564.0,317.5 L 565.0,317.5 L 566.0,317.5 L 567.0,317.5 L 568.0,317.5 L 569.0,317.5 L 570.0,317.5 L 571.0,317.5 L 571.5,318.0 L 572.0,318.5 L 573.0,318.5 L 574.0,318.5 L 575.0,318.5 L 576.0,318.5 L 577.0,318.5 L 577.5,318.0 L 578.0,317.5 L 579.0,317.5 L 580.0,317.5 L 581.0,317.5 L 582.0,317.5 L 583.0,317.5 L 584.0,317.5 L 585.0,317.5 L 586.0,317.5 L 587.0,317.5 L 588.0,317.5 L 589.0,317.5 L 590.0,317.5 L 590.5,318.0 L 591.0,318.5 L 592.0,318.5 L 592.5,318.0 L 593.0,317.5 L 594.0,317.5 L 595.0,317.5 L 596.0,317.5 L 597.0,317.5 L 598.0,317.5 L 599.0,317.5 L 600.0,317.5 L 601.0,317.5 L 602.0,317.5 L 603.0,317.5 L 604.0,317.5 L 604.5,318.0 L 605.0,318.5 L 606.0,318.5 L 607.0,318.5 L 608.0,318.5 L 609.0,318.5 L 610.0,318.5 L 611.0,318.5 L 612.0,318.5 L 613.0,318.5 L 614.0,318.5 L 615.0,318.5 L 616.0,318.5 L 617.0,318.5 L 618.0,318.5 L 619.0,318.5 L 620.0,318.5 L 621.0,318.5 L 621.5,318.0 L 622.0,317.5 L 623.0,317.5 L 623.5,318.0 L 623.5,319.0 L 623.5,320.0 L 623.5,321.0 L 623.5,322.0 L 623.5,323.0 L 623.5,324.0 L 623.5,325.0 L 623.5,326.0 L 623.5,327.0 L 623.5,328.0 L 623.5,329.0 L 623.5,330.0 L 623.5,331.0 L 623.5,332.0 L 623.5,333.0 L 623.5,334.0 L 623.5,335.0 L 623.5,336.0 L 623.5,337.0 L 623.5,338.0 L 623.5,339.0 L 623.5,340.0 L 623.5,341.0 L 623.5,342.0 L 623.5,343.0 L 623.5,344.0 L 623.5,345.0 L 623.5,346.0 L 623.5,347.0 L 623.5,348.0 L 623.5,349.0 L 623.5,350.0 L 623.5,351.0 L 623.5,352.0 L 623.5,353.0 L 623.5,354.0 L 623.5,355.0 L 623.5,356.0 L 623.5,357.0 L 623.5,358.0 L 623.5,359.0 L 623.5,360.0 L 623.5,361.0 L 623.5,362.0 L 623.5,363.0 L 623.5,364.0 L 623.5,365.0 L 623.5,366.0 L 623.5,367.0 L 623.5,368.0 L 623.5,369.0 L 623.5,370.0 L 623.5,371.0 L 623.5,372.0 L 623.5,373.0 L 623.5,374.0 L 623.5,375.0 L 623.5,376.0 L 623.5,377.0 L 623.5,378.0 L 623.5,379.0 L 623.5,380.0 L 623.5,381.0 L 623.5,382.0 L 623.5,383.0 L 623.5,384.0 L 623.5,385.0 L 623.5,386.0 L 623.5,387.0 L 623.5,388.0 L 623.5,389.0 L 623.5,390.0 L 623.5,391.0 L 623.5,392.0 L 623.5,393.0 L 623.5,394.0 L 623.5,395.0 L 623.5,396.0 L 623.5,397.0 L 623.5,398.0 L 623.5,399.0 L 623.5,400.0 L 623.5,401.0 L 623.5,402.0 L 623.5,403.0 L 623.5,404.0 L 623.5,405.0 L 623.5,406.0 L 623.5,407.0 L 623.5,408.0 L 623.5,409.0 L 623.5,410.0 L 623.5,411.0 L 623.5,412.0 L 623.5,413.0 L 623.5,414.0 L 623.5,415.0 L 623.5,416.0 L 623.5,417.0 L 623.5,418.0 L 623.5,419.0 L 623.5,420.0 L 623.5,421.0 L 623.5,422.0 L 623.5,423.0 L 623.5,424.0 L 623.5,425.0 L 623.5,426.0 L 623.5,427.0 L 623.0,427.5 L 622.0,427.5 L 621.0,427.5 L 620.0,427.5 L 619.0,427.5 L 618.0,427.5 L 617.0,427.5 L 616.0,427.5 L 615.0,427.5 L 614.0,427.5 L 613.0,427.5 L 612.0,427.5 L 611.0,427.5 L 610.0,427.5 L 609.0,427.5 L 608.0,427.5 L 607.0,427.5 L 606.0,427.5 L 605.0,427.5 L 604.0,427.5 L 603.0,427.5 L 602.0,427.5 L 601.0,427.5 L 600.0,427.5 L 599.0,427.5 L 598.0,427.5 L 597.0,427.5 L 596.0,427.5 L 595.0,427.5 L 594.0,427.5 L 593.0,427.5 L 592.0,427.5 L 591.0,427.5 L 590.0,427.5 L 589.0,427.5 L 588.0,427.5 L 587.0,427.5 L 586.0,427.5 L 585.0,427.5 L 584.0,427.5 L 583.0,427.5 L 582.0,427.5 L 581.0,427.5 L 580.0,427.5 L 579.0,427.5 L 578.0,427.5 L 577.0,427.5 L 576.0,427.5 L 575.0,427.5 L 574.0,427.5 L 573.0,427.5 L 572.0,427.5 L 571.0,427.5 L 570.0,427.5 L 569.0,427.5 L 568.0,427.5 L 567.0,427.5 L 566.0,427.5 L 565.0,427.5 L 564.0,427.5 L 563.0,427.5 L 562.0,427.5 L 561.0,427.5 L 560.0,427.5 L 559.0,427.5 L 558.0,427.5 L 557.0,427.5 L 556.0,427.5 L 555.0,427.5 L 554.0,427.5 L 553.0,427.5 L 552.0,427.5 L 551.0,427.5 L 550.0,427.5 L 549.0,427.5 L 548.0,427.5 L 547.0,427.5 L 546.0,427.5 L 545.0,427.5 L 544.0,427.5 L 543.0,427.5 L 542.0,427.5 L 541.0,427.5 L 540.0,427.5 L 539.0,427.5 L 538.0,427.5 L 537.0,427.5 L 536.0,427.5 L 535.0,427.5 L 534.0,427.5 L 533.0,427.5 L 532.0,427.5 L 531.0,427.5 L 530.0,427.5 L 529.0,427.5 L 528.0,427.5 L 527.0,427.5 L 526.0,427.5 L 525.0,427.5 L 524.0,427.5 L 523.0,427.5 L 522.0,427.5 L 521.0,427.5 L 520.0,427.5 L 519.0,427.5 L 518.0,427.5 L 517.0,427.5 L 516.0,427.5 L 515.0,427.5 L 514.0,427.5 L 513.0,427.5 L 512.0,427.5 L 511.0,427.5 L 510.0,427.5 L 509.0,427.5 L 508.0,427.5 L 507.0,427.5 L 506.0,427.5 L 505.0,427.5 L 504.0,427.5 L 503.0,427.5 L 502.5,428.0 L 502.0,428.5 L 501.0,428.5 L 500.0,428.5 L 499.0,428.5 L 498.0,428.5 L 497.5,429.0 L 497.0,429.5 L 496.0,429.5 L 495.0,429.5 L 494.0,429.5 L 493.0,429.5 L 492.5,430.0 L 492.0,430.5 L 491.0,430.5 L 490.0,430.5 L 489.5,431.0 L 489.0,431.5 L 488.0,431.5 L 487.0,431.5 L 486.5,432.0 L 486.0,432.5 L 485.0,432.5 L 484.0,432.5 L 483.5,433.0 L 483.0,433.5 L 482.0,433.5 L 481.5,434.0 L 481.0,434.5 L 480.0,434.5 L 479.5,435.0 L 479.0,435.5 L 478.0,435.5 L 477.5,436.0 L 477.0,436.5 L 476.0,436.5 L 475.5,437.0 L 475.0,437.5 L 474.0,437.5 L 473.5,438.0 L 473.0,438.5 L 472.5,439.0 L 472.0,439.5 L 471.0,439.5 L 470.5,440.0 L 470.0,440.5 L 469.0,440.5 L 468.5,441.0 L 468.0,441.5 L 467.5,442.0 L 467.0,442.5 L 466.5,443.0 L 466.0,443.5 L 465.0,443.5 L 464.5,444.0 L 464.0,444.5 L 463.5,445.0 L 463.0,445.5 L 462.5,446.0 L 462.0,446.5 L 461.5,447.0 L 461.0,447.5 L 460.0,447.5 L 459.5,448.0 L 459.0,448.5 L 458.5,449.0 L 458.0,449.5 L 457.5,450.0 L 457.0,450.5 L 456.5,451.0 L 456.0,451.5 L 455.5,452.0 L 455.0,452.5 L 454.5,453.0 L 454.0,453.5 L 453.5,454.0 L 453.5,455.0 L 453.0,455.5 L 452.5,456.0 L 452.0,456.5 L 451.5,457.0 L 451.0,457.5 L 450.5,458.0 L 450.0,458.5 L 449.5,459.0 L 449.5,460.0 L 449.0,460.5 L 448.5,461.0 L 448.0,461.5 L 447.5,462.0 L 447.0,462.5 L 446.5,463.0 L 446.5,464.0 L 446.0,464.5 L 445.5,465.0 L 445.5,466.0 L 445.0,466.5 L 444.5,467.0 L 444.0,467.5 L 443.5,468.0 L 443.5,469.0 L 443.0,469.5 L 442.5,470.0 L 442.5,471.0 L 442.0,471.5 L 441.5,472.0 L 441.5,473.0 L 441.0,473.5 L 440.5,474.0 L 440.5,475.0 L 440.0,475.5 L 439.5,476.0 L 439.5,477.0 L 439.5,478.0 L 439.0,478.5 L 438.5,479.0 L 438.5,480.0 L 438.0,480.5 L 437.5,481.0 L 437.5,482.0 L 437.5,483.0 L 437.0,483.5 L 436.5,484.0 L 436.5,485.0 L 436.5,486.0 L 436.5,487.0 L 436.0,487.5 L 435.5,488.0 L 435.5,489.0 L 435.5,490.0 L 435.5,491.0 L 435.0,491.5 L 434.5,492.0 L 434.5,493.0 L 434.5,494.0 L 434.5,495.0 L 434.5,496.0 L 434.0,496.5 L 433.5,497.0 L 433.5,498.0 L 433.5,499.0 L 433.5,500.0 L 433.5,501.0 L 433.5,502.0 L 433.5,503.0 L 433.5,504.0 L 433.5,505.0 L 433.5,506.0 L 433.5,507.0 L 433.5,508.0 L 433.5,509.0 L 433.5,510.0 L 433.5,511.0 L 433.5,512.0 L 433.5,513.0 L 433.5,514.0 L 433.5,515.0 L 433.5,516.0 L 433.5,517.0 L 433.5,518.0 L 433.5,519.0 L 433.5,520.0 L 433.5,521.0 L 433.5,522.0 L 433.5,523.0 L 433.5,524.0 L 433.5,525.0 L 433.5,526.0 L 433.5,527.0 L 433.5,528.0 L 433.5,529.0 L 433.5,530.0 L 433.5,531.0 L 433.5,532.0 L 433.5,533.0 L 433.5,534.0 L 433.5,535.0 L 433.5,536.0 L 433.5,537.0 L 433.5,538.0 L 433.5,539.0 L 433.5,540.0 L 433.5,541.0 L 433.5,542.0 L 433.5,543.0 L 433.5,544.0 L 433.5,545.0 L 433.5,546.0 L 433.5,547.0 L 433.5,548.0 L 433.5,549.0 L 433.5,550.0 L 433.5,551.0 L 433.5,552.0 L 433.5,553.0 L 433.5,554.0 L 433.5,555.0 L 433.5,556.0 L 433.5,557.0 L 433.5,558.0 L 433.5,559.0 L 433.5,560.0 L 433.5,561.0 L 433.5,562.0 L 433.5,563.0 L 433.5,564.0 L 433.5,565.0 L 433.5,566.0 L 433.5,567.0 L 433.5,568.0 L 433.5,569.0 L 433.5,570.0 L 433.5,571.0 L 433.5,572.0 L 433.5,573.0 L 433.5,574.0 L 433.5,575.0 L 433.5,576.0 L 433.5,577.0 L 433.5,578.0 L 433.5,579.0 L 433.5,580.0 L 433.5,581.0 L 433.5,582.0 L 433.5,583.0 L 433.5,584.0 L 433.5,585.0 L 433.5,586.0 L 433.5,587.0 L 433.5,588.0 L 433.5,589.0 L 433.5,590.0 L 433.5,591.0 L 433.5,592.0 L 433.5,593.0 L 433.5,594.0 L 433.5,595.0 L 433.5,596.0 L 433.5,597.0 L 433.5,598.0 L 433.5,599.0 L 433.5,600.0 L 433.5,601.0 L 433.5,602.0 L 433.5,603.0 L 433.5,604.0 L 433.5,605.0 L 433.5,606.0 L 433.5,607.0 L 433.5,608.0 L 433.5,609.0 L 433.5,610.0 L 433.5,611.0 L 433.5,612.0 L 433.5,613.0 L 433.5,614.0 L 433.5,615.0 L 433.5,616.0 L 433.5,617.0 L 433.5,618.0 L 433.5,619.0 L 433.5,620.0 L 433.5,621.0 L 433.5,622.0 L 433.5,623.0 L 433.5,624.0 L 433.5,625.0 L 433.5,626.0 L 433.5,627.0 L 433.5,628.0 L 433.5,629.0 L 433.5,630.0 L 433.5,631.0 L 433.5,632.0 L 433.5,633.0 L 433.5,634.0 L 433.5,635.0 L 433.5,636.0 L 433.5,637.0 L 433.5,638.0 L 433.5,639.0 L 433.5,640.0 L 433.5,641.0 L 433.5,642.0 L 433.5,643.0 L 433.5,644.0 L 433.5,645.0 L 433.5,646.0 L 433.5,647.0 L 433.5,648.0 L 433.5,649.0 L 433.5,650.0 L 433.5,651.0 L 433.5,652.0 L 433.5,653.0 L 433.5,654.0 L 433.5,655.0 L 433.5,656.0 L 433.5,657.0 L 433.5,658.0 L 433.5,659.0 L 433.5,660.0 L 433.5,661.0 L 433.5,662.0 L 433.5,663.0 L 433.5,664.0 L 433.5,665.0 L 433.5,666.0 L 433.5,667.0 L 433.5,668.0 L 433.5,669.0 L 433.5,670.0 L 433.5,671.0 L 433.5,672.0 L 433.5,673.0 L 433.5,674.0 L 433.5,675.0 L 433.5,676.0 L 433.5,677.0 L 433.5,678.0 L 433.5,679.0 L 433.5,680.0 L 433.5,681.0 L 433.5,682.0 L 433.5,683.0 L 433.5,684.0 L 433.5,685.0 L 433.5,686.0 L 433.5,687.0 L 433.5,688.0 L 433.5,689.0 L 433.5,690.0 L 433.5,691.0 L 433.5,692.0 L 433.5,693.0 L 433.5,694.0 L 433.5,695.0 L 433.5,696.0 L 433.5,697.0 L 433.5,698.0 L 433.5,699.0 L 433.5,700.0 L 433.5,701.0 L 433.5,702.0 L 433.5,703.0 L 433.5,704.0 L 433.5,705.0 L 433.5,706.0 L 433.5,707.0 L 433.5,708.0 L 433.5,709.0 L 433.5,710.0 L 433.5,711.0 L 433.5,712.0 L 433.5,713.0 L 433.5,714.0 L 433.5,715.0 L 433.5,716.0 L 433.5,717.0 L 433.5,718.0 L 433.5,719.0 L 433.5,720.0 L 433.5,721.0 L 433.5,722.0 L 433.5,723.0 L 433.5,724.0 L 433.5,725.0 L 433.5,726.0 L 433.5,727.0 L 433.5,728.0 L 433.5,729.0 L 433.5,730.0 L 433.5,731.0 L 433.5,732.0 L 433.5,733.0 L 433.5,734.0 L 433.5,735.0 L 433.5,736.0 L 433.5,737.0 L 433.5,738.0 L 433.5,739.0 L 433.5,740.0 L 433.5,741.0 L 433.5,742.0 L 433.5,743.0 L 433.5,744.0 L 433.5,745.0 L 433.5,746.0 L 433.5,747.0 L 433.5,748.0 L 433.5,749.0 L 433.5,750.0 L 433.5,751.0 L 433.5,752.0 L 433.5,753.0 L 433.5,754.0 L 433.5,755.0 L 433.5,756.0 L 433.5,757.0 L 433.5,758.0 L 433.5,759.0 L 433.5,760.0 L 433.5,761.0 L 433.5,762.0 L 433.5,763.0 L 433.5,764.0 L 433.5,765.0 L 433.5,766.0 L 433.5,767.0 L 433.5,768.0 L 433.5,769.0 L 433.5,770.0 L 433.5,771.0 L 433.5,772.0 L 433.5,773.0 L 433.5,774.0 L 433.5,775.0 L 433.5,776.0 L 433.5,777.0 L 433.5,778.0 L 433.5,779.0 L 433.5,780.0 L 433.5,781.0 L 433.5,782.0 L 433.5,783.0 L 433.5,784.0 L 433.5,785.0 L 433.5,786.0 L 433.5,787.0 L 433.5,788.0 L 433.5,789.0 L 433.5,790.0 L 433.5,791.0 L 433.5,792.0 L 433.5,793.0 L 433.5,794.0 L 433.5,795.0 L 433.5,796.0 L 433.5,797.0 L 433.5,798.0 L 433.5,799.0 L 433.5,800.0 L 433.5,801.0 L 433.5,802.0 L 433.5,803.0 L 433.5,804.0 L 433.5,805.0 L 433.5,806.0 L 433.5,807.0 L 433.5,808.0 L 433.5,809.0 L 433.5,810.0 L 433.5,811.0 L 433.5,812.0 L 433.5,813.0 L 433.5,814.0 L 433.5,815.0 L 433.5,816.0 L 433.5,817.0 L 433.5,818.0 L 433.5,819.0 L 433.5,820.0 L 433.5,821.0 L 433.5,822.0 L 433.5,823.0 L 433.5,824.0 L 433.5,825.0 L 433.5,826.0 L 433.5,827.0 L 433.5,828.0 L 433.5,829.0 L 433.5,830.0 L 433.5,831.0 L 433.5,832.0 L 433.5,833.0 L 433.5,834.0 L 433.5,835.0 L 433.5,836.0 L 433.5,837.0 L 433.5,838.0 L 433.5,839.0 L 433.5,840.0 L 433.5,841.0 L 433.5,842.0 L 433.5,843.0 L 433.5,844.0 L 433.5,845.0 L 433.5,846.0 L 433.5,847.0 L 433.5,848.0 L 433.5,849.0 L 433.5,850.0 L 433.5,851.0 L 433.5,852.0 L 433.5,853.0 L 433.5,854.0 L 433.5,855.0 L 433.5,856.0 L 433.5,857.0 L 433.5,858.0 L 433.5,859.0 L 433.5,860.0 L 433.5,861.0 L 433.5,862.0 L 433.5,863.0 L 433.5,864.0 L 433.5,865.0 L 433.5,866.0 L 433.5,867.0 L 433.5,868.0 L 433.5,869.0 L 433.5,870.0 L 433.5,871.0 L 433.5,872.0 L 433.5,873.0 L 433.5,874.0 L 433.5,875.0 L 433.5,876.0 L 433.5,877.0 L 433.5,878.0 L 433.5,879.0 L 433.5,880.0 L 433.5,881.0 L 433.5,882.0 L 433.5,883.0 L 433.5,884.0 L 433.5,885.0 L 433.5,886.0 L 433.5,887.0 L 433.5,888.0 L 433.5,889.0 L 433.5,890.0 L 433.5,891.0 L 433.5,892.0 L 433.5,893.0 L 433.5,894.0 L 433.5,895.0 L 433.5,896.0 L 433.5,897.0 L 433.5,898.0 L 433.5,899.0 L 433.5,900.0 L 433.5,901.0 L 433.5,902.0 L 433.5,903.0 L 433.5,904.0 L 433.5,905.0 L 433.0,905.5 Z" fill="#2563EB" fill-rule="evenodd"/>
</svg>